<svg width="24" height="24" fill="none" xmlns="http://www.w3.org/2000/svg"><path fill-rule="evenodd" clip-rule="evenodd" d="M16.386 17.8l2.907 2.907 1.414-1.414-16-16-1.414 1.414 2.66 2.66C4.713 8.42 3.585 9.81 2.63 11.51l-.276.49.275.49C4.996 16.7 8.409 19 12 19c1.516 0 3-.41 4.386-1.2zm-1.482-1.482l-.872-.872a4 4 0 01-5.478-5.478L7.372 8.787c-.967.79-1.888 1.855-2.714 3.213C6.754 15.447 9.46 17 12 17c.958 0 1.94-.221 2.904-.681zm-4.836-4.836a2.003 2.003 0 002.45 2.45l-2.45-2.45zm11.304 1.009a16.192 16.192 0 01-2.195 3.055l-1.414-1.414A13.822 13.822 0 0019.342 12C17.246 8.553 14.54 7 12 7c-.412 0-.828.04-1.245.124L9.132 5.5A8.529 8.529 0 0112 5c3.593 0 7.004 2.3 9.372 6.509l.275.49-.275.49zM16 12c0 .118-.005.236-.015.352l-4.338-4.338A4 4 0 0116 12z" fill="#79838A"/></svg>