<svg width="28" height="28" viewBox="0 0 28 28" fill="none" xmlns="http://www.w3.org/2000/svg">
<path fill-rule="evenodd" clip-rule="evenodd" d="M14 28C21.732 28 28 21.732 28 14C28 6.26801 21.732 0 14 0C6.26801 0 0 6.26801 0 14C0 21.732 6.26801 28 14 28Z" fill="url(#paint0_linear)"/>
<path fill-rule="evenodd" clip-rule="evenodd" d="M3.12849 22.8218C3.13185 22.7882 3.13357 22.7541 3.13357 22.7194C3.13357 22.4485 3.03479 22.2269 2.86191 22.0545L4.3931 19.4936C4.71416 19.6414 5.08461 19.7399 5.45505 19.7399C6.24535 19.7399 6.93685 19.3951 7.40609 18.8288L9.70287 20.3555C9.62878 20.5278 9.57939 20.7248 9.57939 20.9464C9.57939 21.7344 10.2215 22.3747 11.0118 22.3747C11.8021 22.3747 12.4442 21.7344 12.4442 20.9464V20.8972L17.6305 19.7891C17.9021 20.5771 18.6677 21.1681 19.5568 21.1681C20.0754 21.1681 20.5447 20.9711 20.8904 20.651L23.0884 22.5963C23.0143 22.7194 22.9896 22.8671 22.9896 23.0395C22.9896 23.5321 23.3368 23.923 23.8083 23.9898C24.1902 23.6148 24.5507 23.218 24.8878 22.8016C24.7852 22.38 24.4134 22.0792 23.9528 22.0792C23.7552 22.0792 23.5824 22.1284 23.4342 22.2269L21.2609 20.2816C21.4832 19.9615 21.6313 19.5429 21.6313 19.1242C21.6313 18.1147 20.8904 17.2774 19.9026 17.1051L20.1001 11.2198C20.3965 11.1706 20.6682 11.0229 20.8657 10.8012L24.8913 13.1898L27.6806 16.9871C27.729 16.7645 27.772 16.5399 27.8097 16.3134L25.4099 13.0174L27.6939 11.075C27.6547 10.8905 27.6118 10.7073 27.5654 10.5255L25.0395 12.6973L21.1127 10.358C21.1621 10.2103 21.1868 10.0871 21.1868 9.91476C21.1868 9.20066 20.5941 8.60967 19.8779 8.60967C19.5568 8.60967 19.2605 8.7328 19.0135 8.92979L14.9879 5.901C15.0373 5.77788 15.062 5.65476 15.062 5.53164C15.062 4.9899 14.6422 4.57129 14.0989 4.57129C13.5555 4.57129 13.1357 4.9899 13.1357 5.53164C13.1357 5.82713 13.2592 6.07337 13.4568 6.24574L11.5798 10.0133C11.4069 9.96401 11.2341 9.93939 11.0612 9.93939C10.4685 9.93939 9.94984 10.2349 9.65348 10.7027L4.98582 8.56043C5.01052 8.4373 5.03521 8.31418 5.03521 8.19106C5.03521 7.40308 4.3931 6.76285 3.60281 6.76285C2.81252 6.76285 2.14571 7.37846 2.14571 8.19106C2.14571 9.00366 2.78782 9.61927 3.57811 9.61927C4.07204 9.61927 4.51658 9.37303 4.76355 9.00366L9.43121 11.146C9.38181 11.2937 9.35712 11.4661 9.35712 11.6138C9.35712 11.9832 9.4806 12.3526 9.70287 12.6234L7.06033 15.3075C6.64049 14.9627 6.07247 14.7411 5.47975 14.7411C4.56598 14.7411 3.77568 15.2336 3.33115 15.9477L0.00439453 14.3564C0.00927651 14.5518 0.0181602 14.7462 0.0309666 14.9394L3.10888 16.391C3.01009 16.6618 2.9607 16.9327 2.9607 17.2282C2.9607 18.0408 3.35584 18.7795 3.97326 19.2227L2.44207 21.8083C2.41783 21.8002 2.39096 21.7922 2.36231 21.785C2.602 22.1426 2.85774 22.4885 3.12849 22.8218ZM14.1236 6.49198C14.0495 6.49198 14.0001 6.49198 13.926 6.46736L12.049 10.2595C12.4689 10.555 12.7653 11.0721 12.7653 11.6385C12.7653 11.9586 12.6665 12.2787 12.4936 12.5496L18.2479 17.6222C18.569 17.3267 18.9888 17.1543 19.4333 17.1051L19.6309 11.2198C19.0382 11.0967 18.6183 10.5796 18.6183 9.96401C18.6183 9.76702 18.6677 9.57002 18.7665 9.39765L14.7163 6.29499C14.5434 6.41811 14.3458 6.49198 14.1236 6.49198ZM11.0118 19.469C11.6045 19.469 12.1231 19.863 12.3454 20.3801L17.5317 19.2227V19.0504C17.5317 18.6071 17.6799 18.2132 17.9021 17.893L12.1725 12.8451C11.8762 13.0913 11.5057 13.239 11.0859 13.239C10.6907 13.239 10.345 13.1159 10.0733 12.9189L7.40609 15.603C7.75184 16.0462 7.97411 16.5879 7.97411 17.2036C7.97411 17.6468 7.87532 18.0408 7.67775 18.3855L9.97453 19.9122C10.2215 19.6414 10.5919 19.469 11.0118 19.469Z" fill="white" fill-opacity="0.8"/>
<defs>
<linearGradient id="paint0_linear" x1="14" y1="-14" x2="-14" y2="14" gradientUnits="userSpaceOnUse">
<stop stop-color="#FCA800"/>
<stop offset="1" stop-color="#F76B1C"/>
</linearGradient>
</defs>
</svg>
