<svg width="24" height="24" viewBox="0 0 24 24" fill="none" xmlns="http://www.w3.org/2000/svg">
<path fill-rule="evenodd" clip-rule="evenodd" d="M12 17C9.46005 17 6.75415 15.4469 4.65828 11.9999C6.75415 8.55304 9.46004 6.99998 12 7C14.5399 7.00002 17.2458 8.55313 19.3417 12.0001C17.2458 15.447 14.5399 17 12 17ZM21.3716 11.5099C19.0036 7.30007 15.5926 5.00003 12 5C8.40737 4.99997 4.9964 7.29995 2.62842 11.5097L2.35265 11.9999L2.62842 12.4902C4.99639 16.7 8.40736 19 12 19C15.5926 19 19.0036 16.7001 21.3716 12.4904L21.6473 12.0001L21.3716 11.5099ZM10.0001 12C10.0001 10.8954 10.8955 10 12.0001 10C13.1047 10 14.0001 10.8954 14.0001 12C14.0001 13.1046 13.1047 14 12.0001 14C10.8955 14 10.0001 13.1046 10.0001 12ZM12.0001 8C9.79097 8 8.00011 9.79086 8.00011 12C8.00011 14.2091 9.79097 16 12.0001 16C14.2092 16 16.0001 14.2091 16.0001 12C16.0001 9.79086 14.2092 8 12.0001 8Z" fill="#79838A"/>
</svg>
